<svg width="40" height="40" viewBox="0 0 40 40" fill="none" xmlns="http://www.w3.org/2000/svg">
<path d="M20 0C8.97214 0 0 8.97214 0 20C0 31.0279 8.97214 40 20 40C31.0279 40 40 31.0279 40 20C40 8.97214 31.0279 0 20 0ZM10.7143 10.7143H29.2857C29.6807 10.7143 30 11.0343 30 11.4286C30 11.8229 29.6807 12.1429 29.2857 12.1429H10.7143C10.3193 12.1429 10 11.8229 10 11.4286C10 11.0343 10.3193 10.7143 10.7143 10.7143ZM29.2857 29.2857H10.7143C10.3193 29.2857 10 28.9657 10 28.5714C10 28.1771 10.3193 27.8571 10.7143 27.8571H29.2857C29.6807 27.8571 30 28.1771 30 28.5714C30 28.9657 29.6807 29.2857 29.2857 29.2857ZM32.1429 23.5714H7.85714C7.46214 23.5714 7.14286 23.2514 7.14286 22.8571C7.14286 22.4629 7.46214 22.1429 7.85714 22.1429H32.1429C32.5379 22.1429 32.8571 22.4629 32.8571 22.8571C32.8571 23.2514 32.5379 23.5714 32.1429 23.5714ZM32.1429 17.8571H7.85714C7.46214 17.8571 7.14286 17.5371 7.14286 17.1429C7.14286 16.7486 7.46214 16.4286 7.85714 16.4286H32.1429C32.5379 16.4286 32.8571 16.7486 32.8571 17.1429C32.8571 17.5371 32.5379 17.8571 32.1429 17.8571Z" fill="url(#paint0_linear)"/>
<defs>
<linearGradient id="paint0_linear" x1="20" y1="0" x2="20" y2="40" gradientUnits="userSpaceOnUse">
<stop stop-color="#FF734C"/>
<stop offset="1" stop-color="#FF481B"/>
</linearGradient>
</defs>
</svg>
