<svg width="144" height="46" viewBox="0 0 144 36" fill="none" xmlns="http://www.w3.org/2000/svg">
<path d="M5.896 35.48C3.72 35.48 1.864 35.224 0.328 34.712L0.952 27.56C1.528 27.688 2.248 27.752 3.112 27.752C3.752 27.752 4.28 27.656 4.696 27.464C5.112 27.272 5.56 26.776 6.04 25.976C6.552 25.144 6.952 23.992 7.24 22.52C7.528 21.016 7.768 18.888 7.96 16.136C8.152 13.352 8.248 9.992 8.248 6.056V1.4H34.072V35H24.76V9.56H16.936V10.856C16.936 14.856 16.76 18.328 16.408 21.272C16.056 24.216 15.56 26.6 14.92 28.424C14.312 30.216 13.528 31.656 12.568 32.744C11.608 33.8 10.6 34.52 9.544 34.904C8.52 35.288 7.304 35.48 5.896 35.48ZM69.8309 30.584C66.3749 33.976 62.0709 35.672 56.9189 35.672C51.7669 35.672 47.4629 33.992 44.0069 30.632C40.5829 27.24 38.8709 23.096 38.8709 18.2C38.8709 13.336 40.5989 9.208 44.0549 5.816C47.5429 2.424 51.8629 0.727998 57.0149 0.727998C62.1669 0.727998 66.4549 2.424 69.8789 5.816C73.3349 9.176 75.0629 13.304 75.0629 18.2C75.0629 23.064 73.3189 27.192 69.8309 30.584ZM57.0149 27.272C59.5429 27.272 61.5909 26.392 63.1589 24.632C64.7589 22.872 65.5589 20.728 65.5589 18.2C65.5589 15.704 64.7429 13.576 63.1109 11.816C61.4789 10.024 59.4149 9.128 56.9189 9.128C54.4229 9.128 52.3749 10.008 50.7749 11.768C49.2069 13.528 48.4229 15.672 48.4229 18.2C48.4229 20.696 49.2229 22.84 50.8229 24.632C52.4549 26.392 54.5189 27.272 57.0149 27.272ZM79.9135 35V1.4H104.106V9.56H89.2255V35H79.9135ZM137.847 30.584C134.391 33.976 130.087 35.672 124.935 35.672C119.783 35.672 115.479 33.992 112.023 30.632C108.599 27.24 106.887 23.096 106.887 18.2C106.887 13.336 108.615 9.208 112.071 5.816C115.559 2.424 119.879 0.727998 125.031 0.727998C130.183 0.727998 134.471 2.424 137.895 5.816C141.351 9.176 143.079 13.304 143.079 18.2C143.079 23.064 141.335 27.192 137.847 30.584ZM125.031 27.272C127.559 27.272 129.607 26.392 131.175 24.632C132.775 22.872 133.575 20.728 133.575 18.2C133.575 15.704 132.759 13.576 131.127 11.816C129.495 10.024 127.431 9.128 124.935 9.128C122.439 9.128 120.391 10.008 118.791 11.768C117.223 13.528 116.439 15.672 116.439 18.2C116.439 20.696 117.239 22.84 118.839 24.632C120.471 26.392 122.535 27.272 125.031 27.272Z" fill="url(#paint0_linear)"/>
<defs>
<linearGradient id="paint0_linear" x1="73" y1="-2" x2="73" y2="44" gradientUnits="userSpaceOnUse">
<stop stop-color="#FF734C"/>
<stop offset="1" stop-color="#FF481B"/>
</linearGradient>
</defs>
</svg>
