<svg width="14" height="14" viewBox="0 0 14 14" fill="none" xmlns="http://www.w3.org/2000/svg">
<path d="M7 6.99988C7.69223 6.99988 8.36892 6.79461 8.9445 6.41002C9.52007 6.02544 9.96867 5.47881 10.2336 4.83927C10.4985 4.19973 10.5678 3.496 10.4327 2.81706C10.2977 2.13813 9.96436 1.51449 9.47487 1.02501C8.98539 0.535522 8.36175 0.202179 7.68282 0.067131C7.00388 -0.0679172 6.30015 0.00139442 5.66061 0.266301C5.02107 0.531208 4.47444 0.979811 4.08986 1.55538C3.70527 2.13095 3.5 2.80764 3.5 3.49988C3.5 4.42814 3.86875 5.31837 4.52513 5.97475C5.1815 6.63113 6.07174 6.99988 7 6.99988ZM7 7.99988C4.83062 7.99988 0.5 9.33988 0.5 11.9999V13.9999H13.5V11.9999C13.5 9.33988 9.16937 7.99988 7 7.99988Z" fill="#837C7C"/>
</svg>
