<svg width="211" height="201" viewBox="0 0 211 201" fill="none" xmlns="http://www.w3.org/2000/svg">
<rect x="0.688171" y="0.418213" width="200" height="200" fill="#FF0000"/>
<path d="M53.0589 71.3408C53.5816 71.3408 53.9922 71.5088 54.2909 71.8448C54.6269 72.1434 54.7949 72.5541 54.7949 73.0768V108.805C54.7576 109.327 54.5709 109.757 54.2349 110.093C53.8989 110.391 53.4882 110.541 53.0029 110.541C52.5176 110.541 52.1069 110.373 51.7709 110.037C51.4349 109.701 51.2669 109.29 51.2669 108.805V92.1168H28.5309V108.805C28.4936 109.29 28.3069 109.701 27.9709 110.037C27.6349 110.373 27.2242 110.541 26.7389 110.541C26.2162 110.541 25.7869 110.391 25.4509 110.093C25.1522 109.757 25.0029 109.327 25.0029 108.805V73.0768C25.0029 72.5541 25.1709 72.1434 25.5069 71.8448C25.8429 71.5088 26.2722 71.3408 26.7949 71.3408C27.2802 71.3408 27.6909 71.5088 28.0269 71.8448C28.3629 72.1808 28.5309 72.5914 28.5309 73.0768V88.8688H51.2669V73.0768C51.2669 72.5914 51.4349 72.1808 51.7709 71.8448C52.1442 71.5088 52.5736 71.3408 53.0589 71.3408ZM88.6596 94.5808C88.6596 95.0288 88.4916 95.4208 88.1556 95.7568C87.8196 96.0554 87.4276 96.2048 86.9796 96.2048H65.8116C65.8116 98.4448 66.2596 100.461 67.1556 102.253C68.0889 104.007 69.3956 105.407 71.0756 106.453C72.7929 107.461 74.8089 107.965 77.1236 107.965C78.9156 107.965 80.5209 107.591 81.9396 106.845C83.3582 106.098 84.4969 105.146 85.3556 103.989C85.7662 103.653 86.1582 103.485 86.5316 103.485C86.9049 103.485 87.2409 103.634 87.5396 103.933C87.8382 104.231 87.9876 104.567 87.9876 104.941C87.9876 105.351 87.8009 105.743 87.4276 106.117C86.2329 107.573 84.7209 108.767 82.8916 109.701C81.0996 110.634 79.1956 111.101 77.1796 111.101C74.3049 111.101 71.7662 110.485 69.5636 109.253C67.3609 108.021 65.6436 106.303 64.4116 104.101C63.1796 101.861 62.5636 99.2848 62.5636 96.3728C62.5636 93.3114 63.1609 90.6421 64.3556 88.3648C65.5876 86.0501 67.2116 84.2954 69.2276 83.1008C71.2436 81.8688 73.3902 81.2528 75.6676 81.2528C77.9076 81.2528 79.9982 81.7754 81.9396 82.8208C83.9182 83.8661 85.5236 85.3968 86.7556 87.4128C87.9876 89.4288 88.6222 91.8181 88.6596 94.5808ZM75.6676 84.5008C73.5022 84.5008 71.4862 85.2474 69.6196 86.7408C67.7902 88.2341 66.6142 90.3808 66.0916 93.1808H85.1876V92.7328C85.0009 91.0528 84.4409 89.5968 83.5076 88.3648C82.5742 87.0954 81.3982 86.1434 79.9796 85.5088C78.5982 84.8368 77.1609 84.5008 75.6676 84.5008ZM99.2808 108.861C99.2808 109.346 99.1128 109.757 98.7768 110.093C98.4781 110.391 98.0861 110.541 97.6008 110.541C97.1154 110.541 96.7048 110.391 96.3688 110.093C96.0701 109.757 95.9208 109.346 95.9208 108.861V70.7808C95.9208 70.2954 96.0701 69.9034 96.3688 69.6048C96.7048 69.2688 97.1154 69.1008 97.6008 69.1008C98.0861 69.1008 98.4781 69.2688 98.7768 69.6048C99.1128 69.9034 99.2808 70.2954 99.2808 70.7808V108.861ZM112.187 108.861C112.187 109.346 112.019 109.757 111.683 110.093C111.384 110.391 110.992 110.541 110.507 110.541C110.022 110.541 109.611 110.391 109.275 110.093C108.976 109.757 108.827 109.346 108.827 108.861V70.7808C108.827 70.2954 108.976 69.9034 109.275 69.6048C109.611 69.2688 110.022 69.1008 110.507 69.1008C110.992 69.1008 111.384 69.2688 111.683 69.6048C112.019 69.9034 112.187 70.2954 112.187 70.7808V108.861ZM147.282 96.2048C147.282 99.0048 146.666 101.543 145.434 103.821C144.202 106.098 142.504 107.89 140.338 109.197C138.173 110.466 135.765 111.101 133.114 111.101C130.464 111.101 128.056 110.466 125.89 109.197C123.725 107.89 122.026 106.098 120.794 103.821C119.562 101.543 118.946 99.0048 118.946 96.2048C118.946 93.4048 119.562 90.8661 120.794 88.5888C122.026 86.3114 123.725 84.5194 125.89 83.2128C128.056 81.9061 130.464 81.2528 133.114 81.2528C135.765 81.2528 138.173 81.9061 140.338 83.2128C142.504 84.5194 144.202 86.3114 145.434 88.5888C146.666 90.8661 147.282 93.4048 147.282 96.2048ZM143.922 96.2048C143.922 93.9648 143.456 91.9488 142.522 90.1568C141.589 88.3648 140.282 86.9648 138.602 85.9568C136.96 84.9114 135.13 84.3888 133.114 84.3888C131.098 84.3888 129.269 84.9114 127.626 85.9568C125.984 86.9648 124.677 88.3648 123.706 90.1568C122.773 91.9488 122.306 93.9648 122.306 96.2048C122.306 98.4074 122.773 100.405 123.706 102.197C124.677 103.989 125.984 105.407 127.626 106.453C129.269 107.461 131.098 107.965 133.114 107.965C135.13 107.965 136.96 107.461 138.602 106.453C140.282 105.445 141.589 104.045 142.522 102.253C143.456 100.461 143.922 98.4448 143.922 96.2048ZM154.771 87.1888C154.136 87.1888 153.651 87.0021 153.315 86.6288C152.979 86.2554 152.811 85.7328 152.811 85.0608V83.8848C152.811 83.2128 152.979 82.6901 153.315 82.3168C153.651 81.9061 154.136 81.7008 154.771 81.7008H155.163C155.798 81.7008 156.283 81.9061 156.619 82.3168C156.955 82.6901 157.123 83.2128 157.123 83.8848V85.0608C157.123 85.7328 156.955 86.2554 156.619 86.6288C156.283 87.0021 155.798 87.1888 155.163 87.1888H154.771ZM154.771 110.541C154.136 110.541 153.651 110.354 153.315 109.981C152.979 109.607 152.811 109.085 152.811 108.413V107.181C152.811 106.509 152.979 105.986 153.315 105.613C153.651 105.239 154.136 105.053 154.771 105.053H155.163C155.798 105.053 156.283 105.239 156.619 105.613C156.955 105.986 157.123 106.509 157.123 107.181V108.413C157.123 109.085 156.955 109.607 156.619 109.981C156.283 110.354 155.798 110.541 155.163 110.541H154.771ZM163.088 121.237C162.678 121.237 162.323 121.069 162.024 120.733C161.763 120.434 161.632 120.098 161.632 119.725C161.632 119.202 161.875 118.773 162.36 118.437C166.243 116.197 169.286 113.042 171.488 108.973C173.691 104.903 174.792 100.61 174.792 96.0928C174.792 91.5008 173.691 87.1514 171.488 83.0448C169.323 78.9381 166.28 75.8208 162.36 73.6928C161.912 73.4688 161.688 73.0581 161.688 72.4608C161.688 72.0501 161.819 71.6954 162.08 71.3968C162.342 71.0981 162.678 70.9488 163.088 70.9488C163.387 70.9488 163.667 71.0234 163.928 71.1728C168.483 73.5248 171.992 76.9408 174.456 81.4208C176.92 85.9008 178.152 90.7914 178.152 96.0928C178.152 101.245 176.902 106.023 174.4 110.429C171.899 114.834 168.408 118.362 163.928 121.013C163.667 121.162 163.387 121.237 163.088 121.237Z" fill="black"/>
</svg>
