<svg width="32" height="32" viewBox="0 0 32 32" fill="none" xmlns="http://www.w3.org/2000/svg">
<path d="M31.9717 13.715C31.9717 6.14337 25.8348 0 18.2567 0C13.6329 0 9.5373 2.28909 7.05908 5.79773L8.10254 6.84119C10.3069 3.5869 14.0307 1.45432 18.2567 1.45432C25.0262 1.45432 30.5174 6.94553 30.5174 13.715C30.5174 17.9345 28.3848 21.6518 25.1436 23.8561L26.187 24.8996C29.6891 22.4214 31.9717 18.3323 31.9717 13.715Z" fill="#1C1C1C"/>
<path d="M21.8242 22.578C20.9111 21.665 19.4177 21.5672 18.4525 22.428C16.796 24.0845 16.2482 23.8693 15.6417 23.2367L8.72222 16.3694C8.08963 15.7368 7.87441 15.2151 9.5309 13.5586C10.3918 12.5934 10.2939 11.1 9.38091 10.1869L5.48097 6.26091C4.56795 5.34788 3.10058 5.25006 2.13538 6.08483C-1.16457 9.05869 -0.408056 16.0955 3.14623 19.3889L12.6743 28.917C15.883 32.3213 22.7046 33.267 25.9002 29.9083C26.735 28.9431 26.6371 27.4758 25.7241 26.5627L21.8242 22.578Z" fill="#1C1C1C"/>
<path d="M17.9895 17.1323H13.3135C12.8635 17.1323 12.4983 16.7671 12.4983 16.3171C12.4983 14.7063 16.3982 11.6541 16.6069 11.4781C16.8156 11.2368 16.9265 10.9368 16.9265 10.6172C16.9265 9.89331 16.333 9.29984 15.6091 9.29984C14.8852 9.29984 14.2917 9.89331 14.2917 10.6172C14.2917 11.0672 13.9265 11.4324 13.4765 11.4324C13.0265 11.4324 12.6613 11.0672 12.6613 10.6172C12.6613 8.99332 13.9852 7.66943 15.6091 7.66943C17.233 7.66943 18.5569 8.99332 18.5569 10.6172C18.5569 11.3672 18.2764 12.0781 17.7678 12.6259C17.7417 12.652 17.7156 12.678 17.6895 12.7041C16.5156 13.6693 15.3874 14.7454 14.7222 15.5019H17.9895C18.4395 15.5019 18.8047 15.8671 18.8047 16.3171C18.8047 16.7671 18.4395 17.1323 17.9895 17.1323Z" fill="#1C1C1C"/>
<path d="M24.0156 17.2495C23.5656 17.2495 23.2004 16.8843 23.2004 16.4343V15.3843H19.8091C19.5092 15.3843 19.2287 15.2148 19.0852 14.9474C18.9418 14.68 18.9613 14.3539 19.1374 14.1061L23.3439 8.02142C23.546 7.72795 23.9178 7.60404 24.2569 7.70838C24.596 7.81273 24.8308 8.13229 24.8308 8.48446V13.7539H25.7634C26.2134 13.7539 26.5786 14.1191 26.5786 14.5691C26.5786 15.0191 26.2134 15.3843 25.7634 15.3843H24.8308V16.4343C24.8308 16.8843 24.4656 17.2495 24.0156 17.2495ZM21.3613 13.7539H23.2004V11.0996L21.3613 13.7539Z" fill="#1C1C1C"/>
</svg>
